<?xml version="1.0" encoding="UTF-8"?>
<svg version="1.1" xmlns="http://www.w3.org/2000/svg" width="905" height="608">
<path d="M0 0 C298.65 0 597.3 0 905 0 C905 200.64 905 401.28 905 608 C606.35 608 307.7 608 0 608 C0 407.36 0 206.72 0 0 Z " fill="#FAF8F4" transform="translate(0,0)"/>
<path d="M0 0 C1.68154678 -0.0149778 1.68154678 -0.0149778 3.39706421 -0.03025818 C5.76906653 -0.04543387 8.14113277 -0.05248414 10.51318359 -0.05200195 C14.115355 -0.05853376 17.71472591 -0.11294419 21.31640625 -0.16992188 C23.62759481 -0.17873051 25.93879638 -0.18468033 28.25 -0.1875 C29.31497711 -0.20905655 30.37995422 -0.2306131 31.47720337 -0.25282288 C40.26004474 -0.17366667 47.23311619 2.51083026 53.71768188 8.54612732 C60.10769945 15.47410897 70.5234375 31.05332186 70.5234375 40.50390625 C71.11612637 40.50200765 71.70881524 40.50010905 72.31946439 40.49815291 C107.43338239 40.38630502 142.54726978 40.30049502 177.6613288 40.2485796 C181.87586338 40.24232594 186.0903976 40.23585434 190.30493164 40.22924805 C191.14398284 40.22793649 191.98303404 40.22662494 192.84751103 40.22527365 C206.44006114 40.20350669 220.03250571 40.16407809 233.62499317 40.11814227 C247.56823374 40.07141346 261.51141896 40.04361844 275.45473462 40.03346378 C284.0611778 40.02659717 292.66732268 40.00489634 301.27367405 39.96432392 C307.17236329 39.93792964 313.07089792 39.92989769 318.96964195 39.93639936 C322.37493917 39.93960751 325.77971452 39.93463002 329.18491936 39.90787888 C332.87513959 39.88310494 336.56406991 39.88894563 340.25431824 39.90263367 C341.87250663 39.88078736 341.87250663 39.88078736 343.5233857 39.85849971 C350.7780653 39.93154063 350.7780653 39.93154063 354.66525745 42.91648579 C357.70244957 47.14562011 357.95505234 50.38605639 357.5234375 55.50390625 C356.90340158 58.31573454 355.98427217 60.99091886 355.03515625 63.70703125 C352.35317372 71.78882625 349.9194213 79.91856763 347.60546875 88.11328125 C347.26299606 89.3245015 346.92052338 90.53572174 346.56767273 91.78364563 C345.8550939 94.30832477 345.1435603 96.83329912 344.43301392 99.35855103 C343.31765502 103.32216426 342.1945869 107.2835732 341.07104492 111.24487305 C337.71229943 123.09734548 334.38254541 134.95577477 331.1796875 146.8515625 C330.45511017 149.51636252 329.72920392 152.18079641 329.0027771 154.84509277 C328.35411284 157.24904827 327.72618868 159.65778427 327.09887695 162.06738281 C325.12192239 169.44454778 323.34826871 175.21912561 317.5234375 180.50390625 C316.96544464 181.04642564 316.40745178 181.58894503 315.83255005 182.1479044 C312.51846523 184.09406556 309.36310097 183.91353115 305.62841797 183.87571716 C304.82744627 183.87954173 304.02647457 183.88336629 303.201231 183.88730675 C300.51418569 183.8966012 297.82765435 183.88459458 295.140625 183.87280273 C293.21551296 183.87527028 291.29040226 183.87910822 289.36529541 183.88421631 C285.21827729 183.89255984 281.07139645 183.89174208 276.92437744 183.8840313 C270.36993027 183.87246461 263.81566035 183.88459682 257.26123047 183.90065002 C240.98186309 183.93687038 224.7024997 183.94307168 208.4230957 183.94055176 C195.77119197 183.93884228 183.11943256 183.94591001 170.46756935 183.98053032 C163.94885324 183.99735918 157.43048857 183.99549981 150.91177368 183.9797076 C146.86024236 183.97392384 142.80887887 183.98462689 138.75737762 183.99995422 C136.8755883 184.00369058 134.99377111 184.00054331 133.11200714 183.99008369 C130.54706354 183.97677423 127.98335032 183.98786913 125.41845703 184.00511169 C124.67021101 183.99530492 123.92196499 183.98549814 123.15104485 183.97539419 C119.67339347 184.02388976 117.85471438 184.24513646 115.07565308 186.41594028 C112.35972534 190.06927605 112.32753003 193.53657129 112.2109375 198.00390625 C112.15486328 199.4115625 112.15486328 199.4115625 112.09765625 200.84765625 C112.66552206 204.39030536 113.68418962 205.33443586 116.5234375 207.50390625 C119.15277747 207.88982478 121.361487 208.03090546 123.98739624 207.98924255 C124.74203773 207.99321598 125.49667922 207.9971894 126.27418864 208.00128323 C128.80473807 208.00987966 131.3342695 207.99003626 133.86474609 207.97045898 C135.67823933 207.97100765 137.4917328 207.97338191 139.30522156 207.97744751 C143.21165559 207.98262771 147.11780925 207.9755407 151.02421188 207.95919609 C157.20117191 207.93411238 163.37785405 207.94035235 169.55484009 207.95167542 C184.89846842 207.97489412 200.24201716 207.95644712 215.58563232 207.93017578 C227.50732564 207.91023568 239.42879758 207.90164238 251.35049117 207.92711216 C257.49076274 207.93893487 263.6304044 207.92725734 269.77061057 207.89785945 C273.59172382 207.88460353 277.41259281 207.89202283 281.23369789 207.90513992 C283.00500668 207.90699646 284.77634844 207.90028051 286.54758644 207.88433647 C288.96756055 207.86374313 291.38555772 207.87391504 293.80551147 207.8915863 C294.85494134 207.8714837 294.85494134 207.8714837 295.9255718 207.85097498 C301.47762862 207.94413231 303.75311722 209.72394089 307.5234375 213.50390625 C309.0782044 216.61344004 308.80988187 219.06657386 308.5234375 222.50390625 C307.02597889 225.11238254 305.65314848 227.37419527 303.5234375 229.50390625 C301.88870868 229.59090967 300.25029695 229.61091688 298.61328125 229.6015625 C297.62392578 229.59833984 296.63457031 229.59511719 295.61523438 229.59179688 C294.57431641 229.58341797 293.53339844 229.57503906 292.4609375 229.56640625 C291.41615234 229.56189453 290.37136719 229.55738281 289.29492188 229.55273438 C286.7043709 229.54090538 284.11393191 229.52442314 281.5234375 229.50390625 C281.5234375 230.16390625 281.5234375 230.82390625 281.5234375 231.50390625 C282.12027344 231.76816406 282.71710938 232.03242188 283.33203125 232.3046875 C288.15965347 234.94654137 292.13680268 240.24681291 294.046875 245.3671875 C295.8491781 253.44800548 295.2921662 261.08237625 291.13671875 268.28125 C286.73275817 274.34869206 281.02462853 279.16058678 273.5234375 280.50390625 C258.48395549 281.97318605 258.48395549 281.97318605 252.30078125 277.18359375 C251.71425781 276.62929688 251.12773437 276.075 250.5234375 275.50390625 C249.44255859 274.48683594 249.44255859 274.48683594 248.33984375 273.44921875 C243.85372224 268.82715417 241.06607703 264.97940467 240.5234375 258.50390625 C240.45511719 257.69824219 240.38679688 256.89257812 240.31640625 256.0625 C239.95219355 247.22696964 242.64844912 240.13117973 248.5234375 233.50390625 C250.0084375 232.51390625 250.0084375 232.51390625 251.5234375 231.50390625 C218.1934375 231.50390625 184.8634375 231.50390625 150.5234375 231.50390625 C152.1734375 233.15390625 153.8234375 234.80390625 155.5234375 236.50390625 C161.22628336 243.02144437 162.04631733 248.39004654 161.89453125 256.92578125 C161.13495588 264.24968694 158.00399239 269.43023002 152.7109375 274.44140625 C144.4029944 280.96468009 135.98090031 281.69642394 125.5234375 280.50390625 C122.23089415 279.39267287 120.03936311 277.87590018 117.5234375 275.50390625 C116.57017578 274.61445312 116.57017578 274.61445312 115.59765625 273.70703125 C109.89287766 267.80146335 107.49474861 261.72985313 107.0859375 253.56640625 C107.3694298 245.95936286 109.91216789 239.783675 115.2734375 234.37890625 C116.34224814 233.40440243 117.42046723 232.43957204 118.5234375 231.50390625 C117.38068359 231.37435547 117.38068359 231.37435547 116.21484375 231.2421875 C106.04914781 229.85884061 98.58828969 226.92455443 92.03125 218.796875 C87.21159453 211.46750256 85.065193 203.17993649 86.5234375 194.50390625 C87.66765094 190.5956321 89.002626 186.7566613 90.47607422 182.96069336 C90.75080566 182.22729736 91.02553711 181.49390137 91.30859375 180.73828125 C91.56519775 180.09084961 91.82180176 179.44341797 92.08618164 178.77636719 C93.51906551 171.32953134 89.64108252 163.92764583 87.04296875 157.1328125 C86.5924968 155.93768539 86.14202484 154.74255829 85.67790222 153.51121521 C84.48146702 150.3371981 83.27653897 147.16647313 82.06970215 143.99639893 C80.86372417 140.82436185 79.6655032 137.6493999 78.46679688 134.47460938 C76.63408949 129.62349322 74.79671873 124.77418641 72.95556641 119.92626953 C71.23308969 115.38689735 69.52940683 110.84116629 67.84204102 106.28865051 C65.8609752 100.94626213 63.7845796 95.70455363 61.40869141 90.52636719 C59.78193887 86.80987021 58.5142529 82.96807027 57.2109375 79.12890625 C54.80336915 72.14301121 52.33701178 65.18415939 49.7734375 58.25390625 C49.49201904 57.49287598 49.21060059 56.7318457 48.9206543 55.94775391 C47.60062244 52.38701223 46.26975036 48.83059117 44.9296875 45.27734375 C44.11287626 43.10845834 43.33661716 40.94502845 42.6015625 38.74609375 C42.32828125 37.96492188 42.055 37.18375 41.7734375 36.37890625 C41.51046875 35.59257812 41.2475 34.80625 40.9765625 33.99609375 C38.80307924 30.2684531 36.25451109 27.70276685 32.5234375 25.50390625 C28.82623636 24.70439965 25.24982417 24.7817163 21.48046875 24.875 C20.43444992 24.87315201 19.38843109 24.87130402 18.31071472 24.86940002 C14.98498214 24.86516299 11.66138407 24.89926322 8.3359375 24.94140625 C4.99993208 24.97819247 1.6652444 25.00592661 -1.67097473 25.00270081 C-3.74228922 25.00093108 -5.81378028 25.02217696 -7.88456726 25.06895447 C-14.8526231 25.06689735 -14.8526231 25.06689735 -18.11083984 22.12695312 C-20.32487435 17.87461371 -20.09057416 14.17638523 -19.4765625 9.50390625 C-18.29393179 6.08050157 -17.3129588 4.22237132 -14.58056641 1.87524414 C-9.80922737 -0.23271648 -5.16252014 0.01600089 0 0 Z " fill="#F2632E" transform="translate(242.4765625,94.49609375)"/>
<path d="M0 0 C6.93 0 13.86 0 21 0 C23.82963684 3.53704605 25.99542411 6.50449729 28.1796875 10.3671875 C28.77257568 11.40738037 29.36546387 12.44757324 29.97631836 13.51928711 C30.6028833 14.62667236 31.22944824 15.73405762 31.875 16.875 C37.64571781 27.00324237 43.5830833 37.00200539 49.78271484 46.87646484 C50.33781738 47.77187988 50.89291992 48.66729492 51.46484375 49.58984375 C51.955896 50.37222412 52.44694824 51.15460449 52.95288086 51.96069336 C54 54 54 54 54 57 C54.66 57 55.32 57 56 57 C56.28053223 56.26910156 56.56106445 55.53820312 56.85009766 54.78515625 C57.90513101 52.22978035 59.07489502 49.86202881 60.3984375 47.4375 C60.87200684 46.56826904 61.34557617 45.69903809 61.83349609 44.8034668 C62.34219238 43.87832275 62.85088867 42.95317871 63.375 42 C64.16704834 40.55524292 64.16704834 40.55524292 64.97509766 39.08129883 C68.72898317 32.25731487 72.52815923 25.45950441 76.375 18.6875 C76.8498584 17.84767578 77.3247168 17.00785156 77.81396484 16.14257812 C78.50546631 14.93311523 78.50546631 14.93311523 79.2109375 13.69921875 C79.60587402 13.00658936 80.00081055 12.31395996 80.40771484 11.6003418 C82.82102695 7.65919073 85.43654397 3.84518404 88 0 C95.59 0 103.18 0 111 0 C111 36.63 111 73.26 111 111 C103.74 111 96.48 111 89 111 C88.67 86.58 88.34 62.16 88 37 C86.02 40.63 84.04 44.26 82 48 C77.3390718 56.36113446 72.47923217 64.59970384 67.5625 72.8125 C67.02995605 73.70316162 66.49741211 74.59382324 65.94873047 75.51147461 C65.45131348 76.3391333 64.95389648 77.16679199 64.44140625 78.01953125 C63.99482666 78.76307861 63.54824707 79.50662598 63.08813477 80.27270508 C61.6367599 82.57660393 61.34138853 82.88118056 58.69921875 83.80078125 C54.82615539 84.45885038 52.70832577 84.39758867 49 83 C43.74004177 77.46052709 40.49471488 69.52584514 37 63 C32.38 55.41 27.76 47.82 23 40 C22.67 63.1 22.34 86.2 22 110 C14.74 110 7.48 110 0 110 C0 73.7 0 37.4 0 0 Z " fill="#04484D" transform="translate(474,403)"/>
<path d="M0 0 C6.6 0 13.2 0 20 0 C22.02529402 6.07588205 23.8911439 12.0496905 25.48046875 18.234375 C25.80704216 19.49595428 25.80704216 19.49595428 26.14021301 20.78302002 C26.5947461 22.54387932 27.04758404 24.305177 27.4987793 26.06689453 C28.18971419 28.75862601 28.89052772 31.44766363 29.59179688 34.13671875 C30.03445715 35.85661575 30.47653507 37.57666277 30.91796875 39.296875 C31.12729538 40.09591248 31.33662201 40.89494995 31.55229187 41.71820068 C32.52743951 45.56394771 33.26639031 48.9956488 33 53 C33.66 53 34.32 53 35 53 C35.11029541 52.0404541 35.22059082 51.0809082 35.33422852 50.09228516 C36.00252345 45.43994949 37.31600222 41.02143813 38.65234375 36.5234375 C38.91253799 35.63516266 39.17273224 34.74688782 39.44081116 33.83169556 C39.98908906 31.96361938 40.53970334 30.0962275 41.0925293 28.22949219 C41.93644231 25.3785731 42.77251283 22.5254424 43.60742188 19.671875 C44.14276938 17.85142722 44.67856153 16.03111014 45.21484375 14.2109375 C45.46386948 13.36187836 45.7128952 12.51281921 45.96946716 11.63803101 C46.20633743 10.84015167 46.4432077 10.04227234 46.68725586 9.22021484 C46.89297714 8.52407074 47.09869843 7.82792664 47.31065369 7.11068726 C48.09738615 4.70181649 49.05886303 2.35284243 50 0 C55.94 0 61.88 0 68 0 C73.37109777 17.23786692 78.27255789 34.57716302 83 52 C85.13296139 45.88875229 86.90950184 39.76271258 88.4453125 33.4765625 C88.66065643 32.60857025 88.87600037 31.740578 89.09786987 30.84628296 C89.77697689 28.10668213 90.45124071 25.36592042 91.125 22.625 C91.80675074 19.8628751 92.48952978 17.10100992 93.17355347 14.33944702 C93.5968784 12.62922868 94.01874979 10.91864974 94.43899536 9.20767212 C95.20619618 6.09955745 95.98715583 3.03853251 97 0 C103.6 0 110.2 0 117 0 C115.38680414 9.10472007 112.82164297 17.87179214 110.2109375 26.7265625 C109.7425997 28.32641933 109.27463924 29.92638666 108.80703735 31.52645874 C107.58439894 35.70644947 106.35669103 39.88493405 105.12786865 44.06311035 C103.8712025 48.33934101 102.61940933 52.61699748 101.3671875 56.89453125 C98.91618574 65.26441362 96.45936883 73.63257235 94 82 C87.4 82 80.8 82 74 82 C73.5875 80.48535156 73.175 78.97070312 72.75 77.41015625 C68.55321279 62.14073281 63.94009728 47.04475377 59 32 C57.22121369 37.19184216 55.44308466 42.38390881 53.66552734 47.57617188 C53.06251165 49.33729931 52.45932583 51.09836851 51.85595703 52.859375 C48.53222023 62.56049734 45.22369272 72.26508634 42 82 C35.73 82 29.46 82 23 82 C22.17757812 79.14601563 21.35515625 76.29203125 20.5078125 73.3515625 C19.67662119 70.46923008 18.84510675 67.5869911 18.01351929 64.70477295 C17.42254901 62.65636016 16.83174824 60.60789846 16.24111938 58.55938721 C13.16119794 47.87949058 10.07290524 37.20258054 6.91015625 26.546875 C6.67548645 25.75513885 6.44081665 24.96340271 6.19903564 24.14767456 C5.1037694 20.45438561 4.00394376 16.76255127 2.89697266 13.07275391 C2.50799672 11.76469045 2.11915372 10.45658745 1.73046875 9.1484375 C1.39426514 8.02614746 1.05806152 6.90385742 0.71166992 5.74755859 C0 3 0 3 0 0 Z " fill="#06494D" transform="translate(186,432)"/>
<path d="M0 0 C4.84257042 3.91159564 9.28016712 9.1524743 11.51953125 15.03515625 C11.30078125 17.05249023 11.30078125 17.05249023 10.51953125 19.03515625 C8.87719727 20.04003906 8.87719727 20.04003906 6.7734375 20.73828125 C5.64131836 21.125 5.64131836 21.125 4.48632812 21.51953125 C3.69291016 21.7721875 2.89949219 22.02484375 2.08203125 22.28515625 C1.29248047 22.55328125 0.50292969 22.82140625 -0.31054688 23.09765625 C-6.10821907 25.03515625 -6.10821907 25.03515625 -8.48046875 25.03515625 C-8.73441406 24.48085938 -8.98835938 23.9265625 -9.25 23.35546875 C-9.59417969 22.63101562 -9.93835938 21.9065625 -10.29296875 21.16015625 C-10.62941406 20.44085938 -10.96585938 19.7215625 -11.3125 18.98046875 C-12.47513972 16.72972819 -12.47513972 16.72972819 -15.48046875 15.03515625 C-15.48046875 14.37515625 -15.48046875 13.71515625 -15.48046875 13.03515625 C-22.7101043 10.89304201 -29.66942071 9.6493206 -36.91796875 12.28515625 C-39.530887 14.06958822 -40.82518663 15.36778734 -42.48046875 18.03515625 C-42.98823095 20.4805123 -42.98823095 20.4805123 -42.91796875 23.03515625 C-42.93730469 23.88078125 -42.95664063 24.72640625 -42.9765625 25.59765625 C-42.30743151 28.88535496 -41.02693772 29.87387633 -38.48046875 32.03515625 C-35.56642171 33.41533793 -35.56642171 33.41533793 -32.28125 34.47265625 C-31.07146484 34.89289063 -29.86167969 35.313125 -28.61523438 35.74609375 C-27.34136506 36.17643074 -26.06727487 36.60611443 -24.79296875 37.03515625 C-16.86266097 39.75129695 -9.07738299 42.47950408 -1.48046875 46.03515625 C-1.48046875 46.69515625 -1.48046875 47.35515625 -1.48046875 48.03515625 C-0.90554687 48.11378906 -0.330625 48.19242187 0.26171875 48.2734375 C3.26494738 49.28663747 4.55861674 50.85518293 6.64453125 53.22265625 C7.32773438 53.97933594 8.0109375 54.73601562 8.71484375 55.515625 C13.72336326 62.5080386 13.60062632 71.75795651 12.51953125 80.03515625 C11.33477412 83.76879325 9.71350096 86.80496761 7.51953125 90.03515625 C6.96265625 90.94265625 6.40578125 91.85015625 5.83203125 92.78515625 C-0.1407919 98.59655175 -8.06521512 103.03515625 -16.48046875 103.03515625 C-16.48046875 103.69515625 -16.48046875 104.35515625 -16.48046875 105.03515625 C-47.8318201 105.66218328 -47.8318201 105.66218328 -59.8046875 94.95703125 C-64.62564505 89.85982659 -69.38312681 83.81988681 -69.53125 76.5390625 C-67.91121498 72.67868164 -64.6892881 71.47792837 -61.10546875 69.72265625 C-60.4196875 69.36365234 -59.73390625 69.00464844 -59.02734375 68.63476562 C-56.01921235 67.09851175 -53.90079065 66.03515625 -50.48046875 66.03515625 C-50.39410156 66.60363281 -50.30773437 67.17210937 -50.21875 67.7578125 C-49.18815233 73.42137218 -47.70970499 77.97155589 -43.48046875 82.03515625 C-41.15878036 83.42306667 -39.08113362 84.16826796 -36.48046875 85.03515625 C-35.49046875 85.36515625 -34.50046875 85.69515625 -33.48046875 86.03515625 C-27.05358405 86.62875839 -21.16987224 86.27313473 -15.48046875 83.03515625 C-12.84929307 80.79865692 -11.71966742 79.28810166 -11.0703125 75.88671875 C-10.80905085 71.85391075 -11.04661743 69.67147152 -13.35546875 66.28515625 C-21.21512021 60.6262072 -29.75728497 57.91667478 -38.98046875 55.28515625 C-50.21750422 51.88155633 -57.65605213 48.45922124 -64.04296875 38.22265625 C-67.46060873 30.64441108 -67.80957023 21.35915702 -65.796875 13.296875 C-64.85858479 11.0426425 -63.80991065 9.08141322 -62.48046875 7.03515625 C-62.07957031 6.41253906 -61.67867188 5.78992188 -61.265625 5.1484375 C-47.53924135 -13.19319398 -17.1873683 -11.58118808 0 0 Z " fill="#06494E" transform="translate(169.48046875,409.96484375)"/>
<path d="M0 0 C7.17179946 5.11310281 11.60477437 11.0102333 13.51953125 19.609375 C13.90702775 24.21000199 13.86992682 28.78038434 13.8125 33.39453125 C13.80825516 34.69136337 13.80401031 35.9881955 13.79963684 37.32432556 C13.78828023 40.74223756 13.7588948 44.15975617 13.7255249 47.57751465 C13.69462358 51.07701296 13.68108902 54.57657594 13.66601562 58.07617188 C13.63401409 64.92074904 13.58132358 71.76500253 13.51953125 78.609375 C7.24953125 78.609375 0.97953125 78.609375 -5.48046875 78.609375 C-5.48046875 75.309375 -5.48046875 72.009375 -5.48046875 68.609375 C-6.14046875 68.609375 -6.80046875 68.609375 -7.48046875 68.609375 C-7.48046875 69.269375 -7.48046875 69.929375 -7.48046875 70.609375 C-9.203125 72.01171875 -9.203125 72.01171875 -11.54296875 73.546875 C-12.29707031 74.05089844 -13.05117188 74.55492187 -13.828125 75.07421875 C-20.55316499 78.9666204 -25.57187407 80.16754863 -33.29296875 80.109375 C-34.17936035 80.10292969 -35.06575195 80.09648438 -35.97900391 80.08984375 C-42.69452548 79.90203156 -48.20840673 79.09440117 -53.48046875 74.609375 C-55.82266806 72.11102907 -57.66986875 69.50753011 -59.48046875 66.609375 C-60.40859375 65.4646875 -60.40859375 65.4646875 -61.35546875 64.296875 C-63.92711909 58.15348808 -63.07897358 51.4631905 -60.91796875 45.296875 C-57.54588671 37.85707162 -51.99913644 34.4973249 -44.69140625 31.37109375 C-38.85866636 29.36158089 -32.70685067 29.0909216 -26.60546875 28.546875 C-25.63738281 28.45599609 -24.66929687 28.36511719 -23.671875 28.27148438 C-18.58446201 27.81119463 -13.58832236 27.50266497 -8.48046875 27.609375 C-9.05485122 19.59373332 -9.05485122 19.59373332 -12.91796875 12.859375 C-18.44091785 10.92149812 -23.91949324 10.4845061 -29.5703125 12.26953125 C-34.31093333 14.66577504 -36.71989482 18.25937972 -39.48046875 22.609375 C-45.96519868 21.87247387 -52.17286618 20.25618749 -58.48046875 18.609375 C-57.21125059 11.09560347 -52.75112256 5.82908492 -46.734375 1.29296875 C-32.95557548 -7.99455205 -14.4837765 -8.12003848 0 0 Z " fill="#05494E" transform="translate(662.48046875,435.390625)"/>
<path d="M0 0 C0.83273437 -0.00322266 1.66546875 -0.00644531 2.5234375 -0.00976562 C7.29560687 0.03202885 9.7246567 0.45236268 14.375 2.3125 C14.375 7.5925 14.375 12.8725 14.375 18.3125 C7.125 18 7.125 18 4.86230469 17.86206055 C1.22203159 17.78618073 -0.32934373 18.04716745 -3.0625 20.5 C-4.6906834 23.43073011 -5.19791087 25.30457876 -5.375 28.625 C-5.4575 30.171875 -5.54 31.71875 -5.625 33.3125 C0.645 33.3125 6.915 33.3125 13.375 33.3125 C13.375 38.9225 13.375 44.5325 13.375 50.3125 C7.105 50.3125 0.835 50.3125 -5.625 50.3125 C-5.625 71.7625 -5.625 93.2125 -5.625 115.3125 C-12.555 115.3125 -19.485 115.3125 -26.625 115.3125 C-27.625 114.3125 -27.625 114.3125 -27.74525452 111.80052185 C-27.74303391 110.68355423 -27.74081329 109.56658661 -27.73852539 108.41577148 C-27.73844986 107.15453964 -27.73837433 105.8933078 -27.73829651 104.59385681 C-27.7331891 103.20710206 -27.72797309 101.82034771 -27.72265625 100.43359375 C-27.72079201 99.02254791 -27.71936814 97.61150143 -27.71836853 96.20045471 C-27.71454379 92.48009465 -27.7047139 88.7597734 -27.69366455 85.03942871 C-27.68344948 81.24569219 -27.67887071 77.45194942 -27.67382812 73.65820312 C-27.66309158 66.20961564 -27.64549515 58.7610682 -27.625 51.3125 C-32.245 51.3125 -36.865 51.3125 -41.625 51.3125 C-41.625 45.3725 -41.625 39.4325 -41.625 33.3125 C-37.005 33.3125 -32.385 33.3125 -27.625 33.3125 C-27.69460938 32.18972656 -27.76421875 31.06695312 -27.8359375 29.91015625 C-28.47110775 15.2849122 -28.47110775 15.2849122 -23.265625 8.97265625 C-16.19711689 1.81999923 -9.79820117 -0.19137112 0 0 Z " fill="#094B4F" transform="translate(386.625,398.6875)"/>
<path d="M0 0 C6.93 0 13.86 0 21 0 C21 6.27 21 12.54 21 19 C27.27 19 33.54 19 40 19 C40 24.94 40 30.88 40 37 C34.06 37 28.12 37 22 37 C22.11817586 42.92665216 22.24241928 48.8531341 22.37231445 54.77954102 C22.41565529 56.79610729 22.45733098 58.81271007 22.49731445 60.8293457 C22.55503747 63.72618617 22.61872622 66.62284306 22.68359375 69.51953125 C22.70030624 70.42274612 22.71701874 71.325961 22.73423767 72.25654602 C22.7641555 73.5175135 22.7641555 73.5175135 22.79467773 74.80395508 C22.81799416 75.91315056 22.81799416 75.91315056 22.84178162 77.04475403 C22.93912225 79.2151671 22.93912225 79.2151671 24 82 C29.28 82.33 34.56 82.66 40 83 C40 88.61 40 94.22 40 100 C35.61774282 102.19112859 32.4328745 102.2654275 27.6875 102.1875 C26.95337891 102.18685547 26.21925781 102.18621094 25.46289062 102.18554688 C17.28498377 102.12023972 11.8331982 101.66666 5.73046875 95.90625 C1.26810239 90.99059586 -0.13052436 85.59925688 -0.11352539 79.13964844 C-0.11344986 78.17895447 -0.11337433 77.2182605 -0.11329651 76.22845459 C-0.10813522 75.19915833 -0.10297394 74.16986206 -0.09765625 73.109375 C-0.0962413 72.04962463 -0.09482635 70.98987427 -0.09336853 69.89801025 C-0.08777382 66.51531138 -0.07522225 63.13267885 -0.0625 59.75 C-0.05748432 57.45573012 -0.05292153 55.16145921 -0.04882812 52.8671875 C-0.03780611 47.24476613 -0.02054507 41.62239431 0 36 C-4.62 36 -9.24 36 -14 36 C-14 30.39 -14 24.78 -14 19 C-9.38 19 -4.76 19 0 19 C0 12.73 0 6.46 0 0 Z " fill="#06494E" transform="translate(767,413)"/>
<path d="M0 0 C6.93 0 13.86 0 21 0 C21 6.27 21 12.54 21 19 C26.94 19 32.88 19 39 19 C39 24.61 39 30.22 39 36 C33.06 36 27.12 36 21 36 C21.07405526 41.74822058 21.15693443 47.49490081 21.26245117 53.24243164 C21.29566354 55.19677702 21.32370695 57.15121747 21.34643555 59.10571289 C21.38004933 61.91854282 21.43236854 64.73050447 21.48828125 67.54296875 C21.49467117 68.41398727 21.5010611 69.2850058 21.50764465 70.18241882 C21.63294986 75.37635329 22.14253154 79.14253154 26 83 C30.32490853 83.4652292 34.65935537 83.70500473 39 84 C39 89.28 39 94.56 39 100 C33.72226495 102.11109402 30.22748746 102.36637745 24.6875 102.375 C23.87087891 102.39949219 23.05425781 102.42398438 22.21289062 102.44921875 C16.33214251 102.47733388 11.8592615 101.40684647 7 98 C4.94140625 95.74609375 4.94140625 95.74609375 3.5625 93.4375 C3.08941406 92.67308594 2.61632812 91.90867187 2.12890625 91.12109375 C0.27885853 87.64505254 -0.12328126 84.94265878 -0.11352539 81.06958008 C-0.11344986 80.06876907 -0.11337433 79.06795807 -0.11329651 78.03681946 C-0.10813522 76.95861435 -0.10297394 75.88040924 -0.09765625 74.76953125 C-0.0962413 73.66397385 -0.09482635 72.55841644 -0.09336853 71.4193573 C-0.08776514 67.88371083 -0.07521204 64.34812738 -0.0625 60.8125 C-0.05748544 58.41731862 -0.05292246 56.02213625 -0.04882812 53.62695312 C-0.0377946 47.75127775 -0.02052767 41.87564957 0 36 C-4.62 36 -9.24 36 -14 36 C-14 30.39 -14 24.78 -14 19 C-9.38 19 -4.76 19 0 19 C0 12.73 0 6.46 0 0 Z " fill="#05494E" transform="translate(419,413)"/>
<path d="M0 0 C0.98226562 -0.00257813 1.96453125 -0.00515625 2.9765625 -0.0078125 C5.375 0.125 5.375 0.125 6.375 1.125 C6.46151611 2.54070123 6.48204904 3.960595 6.47265625 5.37890625 C6.46943359 6.23291016 6.46621094 7.08691406 6.46289062 7.96679688 C6.45032227 9.31354492 6.45032227 9.31354492 6.4375 10.6875 C6.43298828 11.58919922 6.42847656 12.49089844 6.42382812 13.41992188 C6.41200225 15.65501314 6.3955222 17.88997437 6.375 20.125 C5.4571875 20.15078125 4.539375 20.1765625 3.59375 20.203125 C-4.65327163 20.58428987 -11.28805244 20.94056049 -17.40234375 26.83984375 C-21.21483961 31.08292737 -22.72632509 34.18435169 -22.83032227 39.96362305 C-22.85026749 40.9444133 -22.87021271 41.92520355 -22.89076233 42.93571472 C-22.91583107 44.52021172 -22.91583107 44.52021172 -22.94140625 46.13671875 C-22.96218735 47.22008011 -22.98296844 48.30344147 -23.00437927 49.41963196 C-23.06981797 52.88385616 -23.12873353 56.3481568 -23.1875 59.8125 C-23.23069061 62.15951315 -23.27430507 64.50651853 -23.31835938 66.85351562 C-23.42549361 72.61059854 -23.52677727 78.36775842 -23.625 84.125 C-30.555 84.125 -37.485 84.125 -44.625 84.125 C-44.625 57.065 -44.625 30.005 -44.625 2.125 C-38.025 2.125 -31.425 2.125 -24.625 2.125 C-24.295 5.425 -23.965 8.725 -23.625 12.125 C-22.635 11.0525 -21.645 9.98 -20.625 8.875 C-14.84392438 3.07042408 -8.21548357 -0.02167674 0 0 Z " fill="#0B4B50" transform="translate(737.625,429.875)"/>
<path d="M0 0 C0.93879501 -0.0071553 1.87759003 -0.01431061 2.84483337 -0.02168274 C5.94327687 -0.03857014 9.04027361 -0.01916641 12.13867188 0.00219727 C14.29431274 0.00136857 16.44995355 -0.00109081 18.60559082 -0.00511169 C23.12153157 -0.00796974 27.63697636 0.00673262 32.15283203 0.03417969 C37.94021525 0.06826202 43.7267116 0.06224406 49.51413727 0.04351711 C53.96485784 0.03294645 58.41537221 0.04188564 62.86607361 0.05690193 C64.9999073 0.06208369 67.13376254 0.06160203 69.26759338 0.05535698 C72.25048091 0.04990413 75.23210069 0.07028283 78.21484375 0.09765625 C79.09603378 0.09113037 79.97722382 0.08460449 80.88511658 0.07788086 C84.98767956 0.14186906 87.08558551 0.30184924 90.63195801 2.53944397 C93.21162997 5.27085079 93.56084859 6.21194397 93.98242188 10.00610352 C93.60742188 13.63110352 93.60742188 13.63110352 91.68348694 15.82333374 C87.4049292 18.3377953 83.89598787 18.20724588 79.01538086 18.18041992 C78.05547241 18.19064178 77.09556396 18.20086365 76.10656738 18.21139526 C72.93862876 18.23916076 69.77156132 18.23727694 66.60351562 18.23266602 C64.40063656 18.24043988 62.19776049 18.24910921 59.99488831 18.25863647 C55.38068922 18.27355398 50.76679624 18.27298251 46.15258789 18.26245117 C40.23486614 18.2508458 34.3183931 18.28476291 28.40087795 18.33114052 C23.85326292 18.36057531 19.30595032 18.36236452 14.75825691 18.35612106 C12.57611677 18.35714898 10.39396003 18.3676526 8.21191216 18.3877449 C5.16379926 18.4123731 2.1181408 18.39895931 -0.92993164 18.37573242 C-1.83341843 18.3910199 -2.73690521 18.40630737 -3.66777039 18.42205811 C-6.05810401 18.38171871 -8.09387295 18.28823654 -10.39257812 17.63110352 C-13.14133468 14.56096656 -14.21434109 12.60150517 -14.95507812 8.56860352 C-13.36705707 0.27560467 -7.05010618 -0.09354537 0 0 Z " fill="#F26530" transform="translate(205.392578125,215.368896484375)"/>
<path d="M0 0 C6.6 0 13.2 0 20 0 C20 26.73 20 53.46 20 81 C13.4 81 6.8 81 0 81 C0 54.27 0 27.54 0 0 Z " fill="#05464B" transform="translate(313,432)"/>
<path d="M0 0 C1.22477051 -0.01583633 2.44954102 -0.03167267 3.71142578 -0.04798889 C5.0261084 -0.04302902 6.34079102 -0.03806915 7.6953125 -0.03295898 C9.06624778 -0.03819772 10.43717944 -0.04447511 11.80810547 -0.05174255 C14.67627976 -0.06213229 17.54395747 -0.05760608 20.41210938 -0.04296875 C24.08109542 -0.02577356 27.74851642 -0.0492894 31.41732788 -0.08445835 C34.24676822 -0.10645603 37.07583529 -0.1049856 39.90533447 -0.09669304 C41.91333098 -0.09547833 43.92130445 -0.11538631 45.92919922 -0.13563538 C56.05174805 -0.03205104 56.05174805 -0.03205104 59.1484375 2.85400391 C61.37951757 6.42966158 61.55980324 8.39229911 60.8203125 12.53344727 C58.31036287 15.67423487 56.79946454 17.32649905 52.81626892 18.16836548 C51.70248367 18.17234344 50.58869843 18.17632141 49.44116211 18.18041992 C48.17312241 18.19618073 46.9050827 18.21194153 45.59861755 18.22817993 C44.22328824 18.2192308 42.84796688 18.20897597 41.47265625 18.19750977 C40.05448491 18.20088034 38.63631639 18.20573497 37.21815491 18.21200562 C34.2515197 18.21936345 31.28563905 18.2087067 28.3190918 18.18530273 C24.51994128 18.15678746 20.72255471 18.17324016 16.92346859 18.20316505 C13.99710328 18.2212465 11.07115528 18.21547703 8.1447773 18.20252609 C6.74416455 18.19919567 5.34351367 18.20326651 3.94294548 18.21492386 C1.98532732 18.22764533 0.0275759 18.20481094 -1.92993164 18.18041992 C-3.0429213 18.17644196 -4.15591095 18.17246399 -5.30262756 18.16836548 C-8.1796875 17.53344727 -8.1796875 17.53344727 -10.54856873 15.12411499 C-12.22096475 12.46788757 -12.68304644 11.50864655 -12.2421875 8.47094727 C-12.17128906 7.8199707 -12.10039062 7.16899414 -12.02734375 6.49829102 C-9.74305004 1.20336137 -5.33181211 0.03073702 0 0 Z " fill="#F36530" transform="translate(252.1796875,258.466552734375)"/>
<path d="M0 0 C1.0447348 -0.01591187 2.0894696 -0.03182373 3.16586304 -0.04821777 C4.29400421 -0.04841919 5.42214539 -0.04862061 6.58447266 -0.04882812 C8.32490341 -0.06024841 8.32490341 -0.06024841 10.10049438 -0.07189941 C12.55672044 -0.08271261 15.01299253 -0.0855486 17.46923828 -0.08105469 C21.22718139 -0.08008364 24.98307518 -0.12166888 28.74072266 -0.16601562 C31.12613506 -0.17122338 33.51155457 -0.17391081 35.89697266 -0.17382812 C37.02106537 -0.19022339 38.14515808 -0.20661865 39.30331421 -0.22351074 C47.08781933 -0.15459029 47.08781933 -0.15459029 51.08691406 2.76953125 C53.29306396 6.04227835 53.59946564 7.54829264 52.87353516 11.41992188 C51.07359741 14.11982849 49.78976216 15.96180837 46.87353516 17.41992188 C45.23081628 17.5405358 43.58341216 17.59984261 41.93652344 17.62866211 C40.90850616 17.64795273 39.88048889 17.66724335 38.82131958 17.68711853 C34.12277622 17.74470777 29.4243876 17.79411587 24.72558594 17.82495117 C22.24432489 17.84656834 19.76314085 17.88071436 17.28222656 17.92749023 C13.71075277 17.99424453 10.14085595 18.02190935 6.56884766 18.04101562 C5.45833038 18.06884628 4.34781311 18.09667694 3.2036438 18.12535095 C0.3025849 18.11756904 -2.29688131 18.06039013 -5.12646484 17.41992188 C-7.74685174 14.62012747 -8.93235393 12.98101109 -9.40380859 9.18945312 C-8.25404968 2.56842765 -6.85659913 0.06276063 0 0 Z " fill="#F2612C" transform="translate(230.12646484375,172.580078125)"/>
<path d="M0 0 C0.36475594 7.59232743 0.4414296 13.06264386 -4.7890625 19.046875 C-9.16108982 22.90908995 -15.04306488 23.89141199 -20.765625 24.1015625 C-24.62225936 23.8590795 -27.57914944 23.18517425 -31.125 21.625 C-33.73142808 17.97600069 -33.75876045 15.04709278 -33.546875 10.6328125 C-33 8 -33 8 -30.4375 4.9375 C-21.09191121 -0.33001368 -10.47336028 -0.20055371 0 0 Z " fill="#F1F2EE" transform="translate(655,476)"/>
<path d="M0 0 C3.45860899 2.01752191 5.91304247 4.08695289 7 8 C7.06931636 12.19363948 6.70835604 15.1088424 4.0625 18.4375 C-0.530442 21.91700152 -5.41099465 21.62008195 -11 21 C-13.65563802 19.1031157 -14.57242527 17.85514945 -16 15 C-16.55512815 10.36786507 -16.6364242 7.01827873 -14.125 3 C-9.9578667 -0.92200781 -5.49260471 -0.6314333 0 0 Z " fill="#03474C" transform="translate(327,399)"/>
<path d="M0 0 C7.59 0 15.18 0 23 0 C23 36.63 23 73.26 23 111 C15.74 111 8.48 111 1 111 C1 86.58 1 62.16 1 37 C1.33 37 1.66 37 2 37 C2 60.76 2 84.52 2 109 C8.27 109 14.54 109 21 109 C21 73.69 21 38.38 21 2 C9.81615169 2.02922715 9.81615169 2.02922715 -1 4 C-0.67 2.68 -0.34 1.36 0 0 Z " fill="#20474A" transform="translate(562,403)"/>
<path d="M0 0 C6.93 0 13.86 0 21 0 C21 6.27 21 12.54 21 19 C27.27 19 33.54 19 40 19 C40 19.33 40 19.66 40 20 C33.4 20 26.8 20 20 20 C18.40726856 16.81453711 18.89858167 13.36800652 18.9375 9.875 C18.958125 7.27625 18.97875 4.6775 19 2 C13.39 2 7.78 2 2 2 C2.03952149 7.5046882 2.03952149 7.5046882 2.09008789 13.00927734 C2.11111111 18.77777778 2.11111111 18.77777778 1 21 C-3.29 21 -7.58 21 -12 21 C-12 25.62 -12 30.24 -12 35 C-8.04 35 -4.08 35 0 35 C0 35.33 0 35.66 0 36 C-4.62 36 -9.24 36 -14 36 C-14 30.39 -14 24.78 -14 19 C-9.38 19 -4.76 19 0 19 C0 12.73 0 6.46 0 0 Z " fill="#21494F" transform="translate(767,413)"/>
<path d="M0 0 C0.77350025 -0.00085442 1.54700049 -0.00170885 2.34394014 -0.00258917 C4.94964333 -0.00424328 7.55528291 0.0012763 10.16098022 0.00672913 C12.0233205 0.00701104 13.88566089 0.00685318 15.7480011 0.00628662 C20.81591253 0.0059988 25.88380046 0.01189299 30.95170641 0.01886058 C36.24349887 0.02509674 41.53529183 0.02569812 46.8270874 0.02688599 C56.85328636 0.02999853 66.87947445 0.03821088 76.90566862 0.04823548 C88.31783014 0.059399 99.72999217 0.06490767 111.14215779 0.06993091 C134.62288458 0.08039355 158.10360172 0.09799151 181.58432007 0.12025452 C181.58432007 0.45025452 181.58432007 0.78025452 181.58432007 1.12025452 C180.13511563 1.12383705 180.13511563 1.12383705 178.65663433 1.12749195 C155.17211338 1.18622945 131.68769551 1.26207644 108.20328808 1.35596943 C96.84650283 1.40097692 85.48974928 1.44038009 74.13290405 1.46669006 C64.23680337 1.48963009 54.34080262 1.52298315 44.44478112 1.56895608 C39.20262012 1.59294232 33.96055841 1.61163563 28.71834373 1.61786842 C23.78781793 1.62389492 18.85754637 1.64380602 13.92711449 1.67453003 C12.11426556 1.68334948 10.30138347 1.68702481 8.48851395 1.68526268 C6.01947564 1.68361998 3.55122173 1.70022219 1.08229065 1.7215271 C0.35953089 1.71667952 -0.36322886 1.71183195 -1.10789043 1.70683748 C-4.99786832 1.72947531 -4.99786832 1.72947531 -8.25930309 3.64517498 C-8.83170963 4.37533935 -8.83170963 4.37533935 -9.41567993 5.12025452 C-10.07567993 5.12025452 -10.73567993 5.12025452 -11.41567993 5.12025452 C-8.83974307 -0.58360568 -5.79826315 -0.02315003 0 0 Z " fill="#FAE8E1" transform="translate(367.4156799316406,277.87974548339844)"/>
<path d="M0 0 C0.33 0.66 0.66 1.32 1 2 C1.66 2 2.32 2 3 2 C3 21.47 3 40.94 3 61 C-3.27 61 -9.54 61 -16 61 C-16 57.7 -16 54.4 -16 51 C-15.67 51 -15.34 51 -15 51 C-15 53.64 -15 56.28 -15 59 C-9.72 59 -4.44 59 1 59 C0.67 39.53 0.34 20.06 0 0 Z " fill="#2A5356" transform="translate(673,453)"/>
<path d="M0 0 C6.93 0 13.86 0 21 0 C21 6.27 21 12.54 21 19 C27.27 19 33.54 19 40 19 C40 19.33 40 19.66 40 20 C33.4 20 26.8 20 20 20 C18.40587716 16.81175432 18.89825265 13.37103338 18.9375 9.875 C18.94201172 9.12089844 18.94652344 8.36679687 18.95117188 7.58984375 C18.96296501 5.72652873 18.98090058 3.86325445 19 2 C17.79601562 2.02320313 16.59203125 2.04640625 15.3515625 2.0703125 C13.77604785 2.08906863 12.20052652 2.10726899 10.625 2.125 C9.8309375 2.14175781 9.036875 2.15851563 8.21875 2.17578125 C6.14507985 2.19335473 4.07116759 2.10335168 2 2 C1.34 1.34 0.68 0.68 0 0 Z " fill="#345A5F" transform="translate(767,413)"/>
<path d="M0 0 C6.6 0 13.2 0 20 0 C20 5.61 20 11.22 20 17 C13.73 17 7.46 17 1 17 C1 16.67 1 16.34 1 16 C6.61 16 12.22 16 18 16 C18 11.38 18 6.76 18 2 C12.06 2 6.12 2 0 2 C0 1.34 0 0.68 0 0 Z " fill="#214649" transform="translate(380,432)"/>
<path d="M0 0 C0 6.27 0 12.54 0 19 C-5.22460938 19.34179688 -5.22460938 19.34179688 -10.44921875 19.68359375 C-13.38180337 19.94491317 -16.13441617 20.34798379 -19 21 C-18 19 -18 19 -15 17.875 C-10.64117631 16.71506355 -6.48796031 16.86190891 -2 17 C-2 11.72 -2 6.44 -2 1 C-7.94 1.495 -7.94 1.495 -14 2 C-9.43362969 -1.04424687 -5.43284541 -0.12783166 0 0 Z " fill="#285358" transform="translate(744,431)"/>
<path d="M0 0 C3.45860899 2.01752191 5.91304247 4.08695289 7 8 C6.85772358 15.14227642 6.85772358 15.14227642 4 18 C4 13.71 4 9.42 4 5 C-0.5859691 2.70701545 -3.9543361 2.07195825 -9 3 C-11.93973281 5.35418376 -11.93973281 5.35418376 -14 8 C-14.66 8 -15.32 8 -16 8 C-13.33338534 -0.22206188 -7.9548549 -1.1732444 0 0 Z " fill="#1D484C" transform="translate(327,399)"/>
<path d="M0 0 C5.94 0 11.88 0 18 0 C18 5.28 18 10.56 18 16 C12.06 16 6.12 16 0 16 C0 15.67 0 15.34 0 15 C5.28 15 10.56 15 16 15 C16 10.71 16 6.42 16 2 C10.72 1.67 5.44 1.34 0 1 C0 0.67 0 0.34 0 0 Z " fill="#07363C" transform="translate(440,433)"/>
<path d="M0 0 C0.66 0.33 1.32 0.66 2 1 C0.58993195 8.84974889 -1.43276868 16.46110188 -3.625 24.125 C-4.11226563 25.84589844 -4.11226563 25.84589844 -4.609375 27.6015625 C-5.4028407 30.40202967 -6.19977684 33.20145776 -7 36 C-7.33 36 -7.66 36 -8 36 C-8.34997653 29.42652784 -7.15400914 24.22858621 -5.125 18 C-4.58420155 16.29221541 -4.04511605 14.58388737 -3.5078125 12.875 C-3.12157715 11.65296875 -3.12157715 11.65296875 -2.72753906 10.40625 C-1.68714779 6.96527806 -0.83362816 3.4963822 0 0 Z " fill="#204A4E" transform="translate(293,458)"/>
<path d="M0 0 C0.825 -0.00257813 1.65 -0.00515625 2.5 -0.0078125 C3.35851562 -0.00007813 4.21703125 0.00765625 5.1015625 0.015625 C6.37773437 0.00402344 6.37773437 0.00402344 7.6796875 -0.0078125 C8.92105469 -0.00394531 8.92105469 -0.00394531 10.1875 0 C10.93821777 0.00225586 11.68893555 0.00451172 12.46240234 0.00683594 C14.7265625 0.265625 14.7265625 0.265625 19.7265625 2.265625 C19.7265625 7.545625 19.7265625 12.825625 19.7265625 18.265625 C18.0765625 17.935625 16.4265625 17.605625 14.7265625 17.265625 C15.7165625 16.935625 16.7065625 16.605625 17.7265625 16.265625 C17.7265625 11.975625 17.7265625 7.685625 17.7265625 3.265625 C16.0765625 3.265625 14.4265625 3.265625 12.7265625 3.265625 C12.7265625 2.605625 12.7265625 1.945625 12.7265625 1.265625 C6.1265625 1.595625 -0.4734375 1.925625 -7.2734375 2.265625 C-4.18578027 0.20718685 -3.49737798 0.01054107 0 0 Z " fill="#254D52" transform="translate(381.2734375,398.734375)"/>
<path d="M0 0 C6.6 0 13.2 0 20 0 C23 9 23 9 23 13 C22.34 13 21.68 13 21 13 C20.34 9.37 19.68 5.74 19 2 C13.39 2 7.78 2 2 2 C1.67 2.99 1.34 3.98 1 5 C0.67 3.35 0.34 1.7 0 0 Z " fill="#2D4D53" transform="translate(186,432)"/>
<path d="M0 0 C0.79664063 0.15339844 1.59328125 0.30679687 2.4140625 0.46484375 C6.73447415 1.10961107 11.01537398 1.35042888 15.375 1.5625 C16.62216797 1.62727539 16.62216797 1.62727539 17.89453125 1.69335938 C19.92953228 1.79861805 21.96474703 1.89973072 24 2 C23.67 2.66 23.34 3.32 23 4 C19.89585298 4.02903577 16.79174091 4.0468107 13.6875 4.0625 C12.36588867 4.07506836 12.36588867 4.07506836 11.01757812 4.08789062 C10.17001953 4.09111328 9.32246094 4.09433594 8.44921875 4.09765625 C7.66893311 4.10289307 6.88864746 4.10812988 6.0847168 4.11352539 C4 4 4 4 1 3 C0.67 2.01 0.34 1.02 0 0 Z " fill="#305357" transform="translate(430,511)"/>
<path d="M0 0 C4.29 0 8.58 0 13 0 C13 5.28 13 10.56 13 16 C11.68 16.33 10.36 16.66 9 17 C9 16.34 9 15.68 9 15 C9.66 15 10.32 15 11 15 C11 10.38 11 5.76 11 1 C7.37 1 3.74 1 0 1 C0 0.67 0 0.34 0 0 Z " fill="#103C42" transform="translate(445,497)"/>
<path d="M0 0 C-0.33 0.99 -0.66 1.98 -1 3 C-7.53294601 6.11454403 -14.27159372 4.63493984 -21 3 C-16.89200735 1.83461201 -12.80093775 1.60359907 -8.55859375 1.28125 C-5.52010397 0.94724807 -3.0886168 0 0 0 Z " fill="#3D6064" transform="translate(648,497)"/>
<path d="M0 0 C0.66 0.33 1.32 0.66 2 1 C1.27683594 1.81404297 1.27683594 1.81404297 0.5390625 2.64453125 C-0.09257813 3.35996094 -0.72421875 4.07539063 -1.375 4.8125 C-2.31472656 5.87404297 -2.31472656 5.87404297 -3.2734375 6.95703125 C-5.140599 9.08803819 -5.140599 9.08803819 -7 12 C-7.66 12 -8.32 12 -9 12 C-7.72210402 6.03648545 -4.66283606 3.51582826 0 0 Z " fill="#1E4A4F" transform="translate(611,470)"/>
<path d="M0 0 C0.66 0 1.32 0 2 0 C0.75971762 6.17222879 -0.89603589 12.06682122 -3 18 C-3.33 18 -3.66 18 -4 18 C-4.22058508 13.40907294 -3.5361591 9.94544748 -2 5.625 C-1.62875 4.56539063 -1.2575 3.50578125 -0.875 2.4140625 C-0.58625 1.61742187 -0.2975 0.82078125 0 0 Z " fill="#23494C" transform="translate(235,484)"/>
<path d="M0 0 C0.66 0 1.32 0 2 0 C2.054348 2.0622048 2.09294961 4.12482816 2.125 6.1875 C2.14820313 7.33605469 2.17140625 8.48460937 2.1953125 9.66796875 C2.00484152 12.91740372 1.39360127 15.08660521 0 18 C-0.33 18 -0.66 18 -1 18 C-0.505 9.09 -0.505 9.09 0 0 Z " fill="#F46C3C" transform="translate(535,342)"/>
<path d="M0 0 C-8.69936218 3.95425554 -16.73467104 2.88291883 -26 2 C-26 1.67 -26 1.34 -26 1 C-22.41770965 0.63470654 -18.83408482 0.28470822 -15.25 -0.0625 C-13.72632813 -0.2181543 -13.72632813 -0.2181543 -12.171875 -0.37695312 C-10.70234375 -0.51713867 -10.70234375 -0.51713867 -9.203125 -0.66015625 C-8.30239258 -0.74918213 -7.40166016 -0.83820801 -6.47363281 -0.92993164 C-4.08313137 -0.99764521 -2.27129331 -0.7068821 0 0 Z " fill="#567374" transform="translate(651,464)"/>
<path d="M0 0 C7.65606218 -0.19355213 14.66258031 -0.3479743 22 2 C19.24075815 3.80411967 18.11027897 4.0127245 14.75 3.625 C13.8425 3.41875 12.935 3.2125 12 3 C12 2.34 12 1.68 12 1 C8.04 1 4.08 1 0 1 C0 0.67 0 0.34 0 0 Z " fill="#4A6B6A" transform="translate(632,430)"/>
<path d="M0 0 C0.82951172 -0.00257813 1.65902344 -0.00515625 2.51367188 -0.0078125 C3.80821289 0.00378906 3.80821289 0.00378906 5.12890625 0.015625 C5.98806641 0.00789063 6.84722656 0.00015625 7.73242188 -0.0078125 C8.97862305 -0.00394531 8.97862305 -0.00394531 10.25 0 C11.00595459 0.00225586 11.76190918 0.00451172 12.54077148 0.00683594 C14.95386777 0.29720738 16.59317542 1.06765565 18.69140625 2.265625 C16.71140625 2.595625 14.73140625 2.925625 12.69140625 3.265625 C12.69140625 2.605625 12.69140625 1.945625 12.69140625 1.265625 C6.09140625 1.595625 -0.50859375 1.925625 -7.30859375 2.265625 C-4.21272963 0.20171559 -3.51110923 0.01049323 0 0 Z " fill="#597071" transform="translate(381.30859375,398.734375)"/>
<path d="M0 0 C2.6262134 1.94111426 3.02984859 3.12398644 3.8125 6.375 C3.99918125 9.98417085 3.63159712 11.83278206 2 15 C1.67 15 1.34 15 1 15 C1.01160156 14.41992188 1.02320313 13.83984375 1.03515625 13.2421875 C1.08762174 8.7001754 0.91751063 4.47286431 0 0 Z " fill="#2B5055" transform="translate(330,402)"/>
<path d="M0 0 C0.66 0.33 1.32 0.66 2 1 C1.71572583 2.58467728 1.42225182 4.1677057 1.125 5.75 C0.88136719 7.07257813 0.88136719 7.07257813 0.6328125 8.421875 C0.03203736 10.86947744 -0.77997117 12.80599857 -2 15 C-2.19392201 9.47322267 -1.7479503 5.24385089 0 0 Z " fill="#275053" transform="translate(287,479)"/>
<path d="M0 0 C5.03985731 0.44469329 7.37634988 2.71343362 11 6 C10.34 6.66 9.68 7.32 9 8 C8.67 7.01 8.34 6.02 8 5 C5.07085835 3.82917122 5.07085835 3.82917122 2 3 C1.34 2.67 0.68 2.34 0 2 C0 1.34 0 0.68 0 0 Z " fill="#2C5156" transform="translate(657,434)"/>
<path d="M0 0 C2.38564077 0.57584432 4.66682784 1.22227595 7 2 C7 2.66 7 3.32 7 4 C8.32 4.33 9.64 4.66 11 5 C8 6 8 6 5.95703125 5.22265625 C5.24933594 4.83980469 4.54164063 4.45695312 3.8125 4.0625 C3.09707031 3.68222656 2.38164062 3.30195313 1.64453125 2.91015625 C1.10183594 2.60980469 0.55914062 2.30945313 0 2 C0 1.34 0 0.68 0 0 Z " fill="#2E5457" transform="translate(161,454)"/>
<path d="M0 0 C0.66 0.33 1.32 0.66 2 1 C0.84826645 3.46800047 -0.04783565 5.04783565 -2 7 C-2.99 6.67 -3.98 6.34 -5 6 C-3.35 4.02 -1.7 2.04 0 0 Z " fill="#244F54" transform="translate(113,410)"/>
<path d="M0 0 C3.875 1.75 3.875 1.75 5 4 C5.039992 5.99960012 5.04346799 8.00047242 5 10 C4.34 10 3.68 10 3 10 C2.690625 8.906875 2.38125 7.81375 2.0625 6.6875 C1.41662103 4.44592006 0.7376883 2.2130649 0 0 Z " fill="#F36A39" transform="translate(278,174)"/>
<path d="M0 0 C2.2344598 4.03292745 2.54496743 7.44967434 3 12 C2.34 12 1.68 12 1 12 C0.03929566 9.11788698 -0.10581883 7.30149956 -0.0625 4.3125 C-0.05347656 3.50425781 -0.04445312 2.69601562 -0.03515625 1.86328125 C-0.02355469 1.24839844 -0.01195312 0.63351562 0 0 Z " fill="#35595D" transform="translate(206,433)"/>
<path d="M0 0 C3.9492568 0.55105909 7.34920174 1.38935371 11 3 C10.01 3.66 9.02 4.32 8 5 C4.8125 4.125 4.8125 4.125 2 3 C2 2.34 2 1.68 2 1 C1.34 0.67 0.68 0.34 0 0 Z " fill="#355A5F" transform="translate(148,449)"/>
<path d="M0 0 C0.99 0.33 1.98 0.66 3 1 C-0.465 3.97 -0.465 3.97 -4 7 C-3.04065919 3.16263678 -2.76390737 2.40339772 0 0 Z " fill="#114347" transform="translate(613,439)"/>
<path d="M0 0 C0.99 0 1.98 0 3 0 C3 2.64 3 5.28 3 8 C2.34 7.67 1.68 7.34 1 7 C0.59270772 4.67843403 0.25561323 2.3431213 0 0 Z " fill="#2E5554" transform="translate(116,476)"/>
<path d="M0 0 C4.455 0.99 4.455 0.99 9 2 C8.01 2.66 7.02 3.32 6 4 C2.8125 3.125 2.8125 3.125 0 2 C0 1.34 0 0.68 0 0 Z " fill="#305A59" transform="translate(139,446)"/>
<path d="M0 0 C0.99 0.33 1.98 0.66 3 1 C2.34 1 1.68 1 1 1 C0.34 2.32 -0.32 3.64 -1 5 C-1.99 4.34 -2.98 3.68 -4 3 C-2.1875 1.4375 -2.1875 1.4375 0 0 Z " fill="#F16A38" transform="translate(493,327)"/>
</svg>
